{"asset":{"generator":"3D Builder","version":"2.0"},"scene":0,"scenes":[{"nodes":[0]}],"nodes":[{"mesh":0,"matrix":[0.602921724319458,1.7043170430497412E-8,0.93846839666366577,0,0.93846803903579712,-2.3521103287293954E-7,-0.60292202234268188,0,1.8867825701818219E-7,1.1154543161392212,-1.4147465776659374E-7,0,-4.2604227066040039,5.4363022172765341E-7,-1.8658976554870605,1]}],"meshes":[{"primitives":[{"attributes":{"POSITION":0},"mode":4,"indices":1,"material":0}]}],"materials":[{"name":"Metallic","pbrMetallicRoughness":{"baseColorFactor":[0.21586053073406219,0.21586053073406219,0.21586053073406219,1],"metallicFactor":0,"roughnessFactor":1},"alphaMode":"OPAQUE"}],"accessors":[{"bufferView":0,"byteOffset":0,"count":19891,"componentType":5126,"type":"VEC3","min":[3.3458218574523926,2.4542777538299561,0],"max":[3.5235543251037598,2.9439709186553955,0.10757945477962494]},{"bufferView":1,"byteOffset":0,"count":124410,"componentType":5125,"type":"SCALAR"}],"bufferViews":[{"buffer":0,"byteOffset":0,"byteLength":238692,"byteStride":12,"target":34962},{"buffer":0,"byteOffset":238692,"byteLength":497640,"target":34963}],"buffers":[{"byteLength":736332,"uri":"formula_1.bin"}]}