{"asset":{"generator":"3D Builder","version":"2.0"},"scene":0,"scenes":[{"nodes":[0]}],"nodes":[{"mesh":0,"matrix":[0.34132307767868042,0,0,0,0,0.34132289886474609,-4.4757746309187496E-7,0,0,2.7963415050180629E-7,0.3413231372833252,0,-0.11648841947317123,-0.00012013354717055336,-0.12269983440637589,1]}],"meshes":[{"primitives":[{"attributes":{"POSITION":0},"mode":4,"indices":1,"material":0}]}],"materials":[{"name":"Metallic","pbrMetallicRoughness":{"baseColorFactor":[0.21586053073406219,0.21586053073406219,0.21586053073406219,1],"metallicFactor":0,"roughnessFactor":1},"alphaMode":"OPAQUE"}],"accessors":[{"bufferView":0,"byteOffset":0,"count":100872,"componentType":5126,"type":"VEC3","min":[2.7987097084292145E-8,-3.9454846501030261E-8,1.4433252815138076E-8],"max":[0.77155047655105591,0.64515995979309082,0.64455044269561768]},{"bufferView":1,"byteOffset":0,"count":611688,"componentType":5125,"type":"SCALAR"}],"bufferViews":[{"buffer":0,"byteOffset":0,"byteLength":1210464,"byteStride":12,"target":34962},{"buffer":0,"byteOffset":1210464,"byteLength":2446752,"target":34963}],"buffers":[{"byteLength":3657216,"uri":"doutor_estranho.bin"}]}