{"asset":{"generator":"3D Builder","version":"2.0"},"scene":0,"scenes":[{"nodes":[0]}],"nodes":[{"mesh":0,"matrix":[0.2700062096118927,0,0,0,0,-3.2187248422133052E-8,-0.27000617980957031,0,0,0.27000617980957031,-3.2187248422133052E-8,0,0.0054432149045169353,0.10576600581407547,0.0032738302834331989,1]}],"meshes":[{"primitives":[{"attributes":{"POSITION":0},"mode":4,"indices":1,"material":0}]}],"materials":[{"name":"Metallic","pbrMetallicRoughness":{"baseColorFactor":[0.21586053073406219,0.21586053073406219,0.21586053073406219,1],"metallicFactor":0,"roughnessFactor":1},"alphaMode":"OPAQUE"}],"accessors":[{"bufferView":0,"byteOffset":0,"count":77383,"componentType":5126,"type":"VEC3","min":[-0.2361171692609787,-0.11479464173316956,-0.39171698689460754],"max":[0.17208169400691986,0.15330903232097626,0.60825997591018677]},{"bufferView":1,"byteOffset":0,"count":464286,"componentType":5125,"type":"SCALAR"}],"bufferViews":[{"buffer":0,"byteOffset":0,"byteLength":928596,"byteStride":12,"target":34962},{"buffer":0,"byteOffset":928596,"byteLength":1857144,"target":34963}],"buffers":[{"byteLength":2785740,"uri":"maria.bin"}]}