{"asset":{"generator":"3D Builder","version":"2.0"},"scene":0,"scenes":[{"nodes":[0]}],"nodes":[{"mesh":0,"matrix":[9.4865932464599609,0,0,0,0,-1.1308900411677314E-6,-9.4865922927856445,0,0,9.4865922927856445,-1.1308900411677314E-6,0,-5.7094690419035032E-5,0.0031492463313043118,0.00490798894315958,1]}],"meshes":[{"primitives":[{"attributes":{"POSITION":0},"mode":4,"indices":1,"material":0}]}],"materials":[{"name":"Default","pbrMetallicRoughness":{"baseColorFactor":[0.50288659334182739,0.50288659334182739,0.50288659334182739,1],"metallicFactor":0,"roughnessFactor":1},"alphaMode":"OPAQUE"}],"accessors":[{"bufferView":0,"byteOffset":0,"count":55177,"componentType":5126,"type":"VEC3","min":[-0.0025210874155163765,-0.0044735544361174107,-0.000331968127284199],"max":[0.0024732183665037155,0.00056082417722791433,0.00493862759321928]},{"bufferView":1,"byteOffset":0,"count":331590,"componentType":5125,"type":"SCALAR"}],"bufferViews":[{"buffer":0,"byteOffset":0,"byteLength":662124,"byteStride":12,"target":34962},{"buffer":0,"byteOffset":662124,"byteLength":1326360,"target":34963}],"buffers":[{"byteLength":1988484,"uri":"presépio.bin"}]}