{
  "accessors": [
    {
      "name": "Object.1-Mesh_0_positions",
      "componentType": 5126,
      "count": 55177,
      "min": [
        -104.517822265625,
        -128.5372314453125,
        -0.000003999999989900971
      ],
      "max": [
        103.94950866699219,
        81.602783203125,
        219.9999542236328
      ],
      "type": "VEC3",
      "bufferView": 0,
      "byteOffset": 0
    },
    {
      "name": "Object.1-Mesh_0_indices",
      "componentType": 5123,
      "count": 331590,
      "min": [
        0
      ],
      "max": [
        55176
      ],
      "type": "SCALAR",
      "bufferView": 1,
      "byteOffset": 0
    }
  ],
  "asset": {
    "generator": "obj2gltf",
    "version": "2.0"
  },
  "buffers": [
    {
      "name": "EC_3D009",
      "byteLength": 1325304,
      "uri": "EC_3D009.bin"
    }
  ],
  "bufferViews": [
    {
      "name": "bufferView_0",
      "buffer": 0,
      "byteLength": 662124,
      "byteOffset": 0,
      "byteStride": 12,
      "target": 34962
    },
    {
      "name": "bufferView_1",
      "buffer": 0,
      "byteLength": 663180,
      "byteOffset": 662124,
      "target": 34963
    }
  ],
  "materials": [
    {
      "name": "Metallic_0",
      "pbrMetallicRoughness": {
        "baseColorFactor": [
          0.501961,
          0.501961,
          0.501961,
          1
        ],
        "metallicFactor": 0,
        "roughnessFactor": 1
      },
      "emissiveFactor": [
        0,
        0,
        0
      ],
      "alphaMode": "OPAQUE",
      "doubleSided": false
    }
  ],
  "meshes": [
    {
      "name": "Object.1-Mesh",
      "primitives": [
        {
          "attributes": {
            "POSITION": 0
          },
          "indices": 1,
          "material": 0,
          "mode": 4
        }
      ]
    }
  ],
  "nodes": [
    {
      "name": "Object.1",
      "mesh": 0
    }
  ],
  "scene": 0,
  "scenes": [
    {
      "nodes": [
        0
      ]
    }
  ]
}
