{"asset":{"generator":"3D Builder","version":"2.0"},"scene":0,"scenes":[{"nodes":[0]}],"nodes":[{"mesh":0,"matrix":[-2.7123103762960454E-8,2.7123100210246776E-8,-0.2275250256061554,0,-0.22752505540847778,-4.8499882597172455E-15,2.7123100210246776E-8,0,1.616663007348966E-14,0.22752508521080017,2.7123100210246776E-8,0,0.14252066612243652,-0.00016524009697604924,0.0376763679087162,1]}],"meshes":[{"primitives":[{"attributes":{"POSITION":0},"mode":4,"indices":1,"material":0}]}],"materials":[{"name":"Metallic","pbrMetallicRoughness":{"baseColorFactor":[0.21586053073406219,0.21586053073406219,0.21586053073406219,1],"metallicFactor":0,"roughnessFactor":1},"alphaMode":"OPAQUE"}],"accessors":[{"bufferView":0,"byteOffset":0,"count":24290,"componentType":5126,"type":"VEC3","min":[0.00088189198868349195,0.00035827711690217257,0.00072624458698555827],"max":[0.73815816640853882,0.92761534452438354,0.87975001335144043]},{"bufferView":1,"byteOffset":0,"count":140688,"componentType":5125,"type":"SCALAR"}],"bufferViews":[{"buffer":0,"byteOffset":0,"byteLength":291480,"byteStride":12,"target":34962},{"buffer":0,"byteOffset":291480,"byteLength":562752,"target":34963}],"buffers":[{"byteLength":854232,"uri":"cachorro.bin"}]}