{"asset":{"generator":"3D Builder","version":"2.0"},"scene":0,"scenes":[{"nodes":[0]}],"nodes":[{"mesh":0,"matrix":[0.11018112301826477,0,0,0,0,-1.3134613396914574E-8,-0.11018110811710358,0,0,0.11018110811710358,-1.3134613396914574E-8,0,-0.035300485789775848,0.0034912624396383762,0.028225768357515335,1]}],"meshes":[{"primitives":[{"attributes":{"POSITION":0},"mode":4,"indices":1,"material":0}]}],"materials":[{"name":"Metallic","pbrMetallicRoughness":{"baseColorFactor":[0.21586053073406219,0.21586053073406219,0.21586053073406219,1],"metallicFactor":0,"roughnessFactor":1},"alphaMode":"OPAQUE"}],"accessors":[{"bufferView":0,"byteOffset":0,"count":150252,"componentType":5126,"type":"VEC3","min":[0.00038087213761173189,-0.05141037330031395,-0.031686641275882721],"max":[0.996619701385498,0.84866410493850708,2.5095834732055664]},{"bufferView":1,"byteOffset":0,"count":902286,"componentType":5125,"type":"SCALAR"}],"bufferViews":[{"buffer":0,"byteOffset":0,"byteLength":1803024,"byteStride":12,"target":34962},{"buffer":0,"byteOffset":1803024,"byteLength":3609144,"target":34963}],"buffers":[{"byteLength":5412168,"uri":"Jesus.bin"}]}