{"asset":{"generator":"3D Builder","version":"2.0"},"scene":0,"scenes":[{"nodes":[0]}],"nodes":[{"mesh":0,"matrix":[0.11000776290893555,0,0,0,0,-1.3113947261444991E-8,-0.11000774800777435,0,0,0.11000774800777435,-1.3113947261444991E-8,0,-0.0017062912229448557,8.942576679160652E-10,0.0075015760958194733,1]}],"meshes":[{"primitives":[{"attributes":{"POSITION":0},"mode":4,"indices":1,"material":0}]}],"materials":[{"name":"Metallic","pbrMetallicRoughness":{"baseColorFactor":[0.21586053073406219,0.21586053073406219,0.21586053073406219,1],"metallicFactor":0,"roughnessFactor":1},"alphaMode":"OPAQUE"}],"accessors":[{"bufferView":0,"byteOffset":0,"count":250027,"componentType":5126,"type":"VEC3","min":[-0.5417332649230957,0.19212304055690765,0],"max":[0.88272655010223389,1.3070231676101685,1.9998583793640137]},{"bufferView":1,"byteOffset":0,"count":1500276,"componentType":5125,"type":"SCALAR"}],"bufferViews":[{"buffer":0,"byteOffset":0,"byteLength":3000324,"byteStride":12,"target":34962},{"buffer":0,"byteOffset":3000324,"byteLength":6001104,"target":34963}],"buffers":[{"byteLength":9001428,"uri":"deadpool.bin"}]}