{"asset":{"generator":"3D Builder","version":"2.0"},"scene":0,"scenes":[{"nodes":[0]}],"nodes":[{"mesh":0,"matrix":[0.054369661957025528,0,0,0,0,-6.4813687750131521E-9,-0.054369654506444931,0,0,0.054369654506444931,-6.4813687750131521E-9,0,4.1677085391711444E-5,0.23097258806228638,0.053447574377059937,1]}],"meshes":[{"primitives":[{"attributes":{"POSITION":0},"mode":4,"indices":1,"material":0}]}],"materials":[{"name":"Metallic","pbrMetallicRoughness":{"baseColorFactor":[0.21586053073406219,0.21586053073406219,0.21586053073406219,1],"metallicFactor":0,"roughnessFactor":1},"alphaMode":"OPAQUE"}],"accessors":[{"bufferView":0,"byteOffset":0,"count":159305,"componentType":5126,"type":"VEC3","min":[-0.87053364515304565,2.695997953414917,-4.2485561370849609],"max":[0.8645404577255249,4.4310722351074219,0.71744883060455322]},{"bufferView":1,"byteOffset":0,"count":956364,"componentType":5125,"type":"SCALAR"}],"bufferViews":[{"buffer":0,"byteOffset":0,"byteLength":1911660,"byteStride":12,"target":34962},{"buffer":0,"byteOffset":1911660,"byteLength":3825456,"target":34963}],"buffers":[{"byteLength":5737116,"uri":"ammit.bin"}]}