{"asset":{"generator":"3D Builder","version":"2.0"},"scene":0,"scenes":[{"nodes":[0]}],"nodes":[{"mesh":0,"matrix":[-0.047746285796165466,-1.2599322474216024E-8,0.047746259719133377,0,0.047746267169713974,-1.3926387154583608E-8,0.047746308147907257,0,9.38328970079283E-10,0.0675235167145729,1.8756500352878902E-8,0,-0.00045644090278074145,-5.0717912927211728E-6,-0.00027600413886830211,1]}],"meshes":[{"primitives":[{"attributes":{"POSITION":0},"mode":4,"indices":1,"material":0}]}],"materials":[{"name":"Metallic","pbrMetallicRoughness":{"baseColorFactor":[0.21586053073406219,0.21586053073406219,0.21586053073406219,1],"metallicFactor":0,"roughnessFactor":1},"alphaMode":"OPAQUE"}],"accessors":[{"bufferView":0,"byteOffset":0,"count":14786,"componentType":5126,"type":"VEC3","min":[-1.7497819662094116,-0.75660175085067749,7.3718772910069674E-5],"max":[1.74449622631073,0.76602673530578613,2.0734250545501709]},{"bufferView":1,"byteOffset":0,"count":88824,"componentType":5125,"type":"SCALAR"}],"bufferViews":[{"buffer":0,"byteOffset":0,"byteLength":177432,"byteStride":12,"target":34962},{"buffer":0,"byteOffset":177432,"byteLength":355296,"target":34963}],"buffers":[{"byteLength":532728,"uri":"leao.bin"}]}