{"asset":{"generator":"3D Builder","version":"2.0"},"scene":0,"scenes":[{"nodes":[0]}],"nodes":[{"children":[1,2,3,4,5,6,7,8,9,10,11,12,13,14,15,16,17]},{"mesh":0,"matrix":[0.10004082322120667,0,0,0,0,-1.1925795462275346E-8,-0.10004080832004547,0,0,0.10004080832004547,-1.1925795462275346E-8,0,-2.2721480490872636E-5,0.079761110246181488,2.7605081413639709E-5,1]},{"mesh":1,"matrix":[0.10004082322120667,0,0,0,0,-1.1925795462275346E-8,-0.10004080832004547,0,0,0.10004080832004547,-1.1925795462275346E-8,0,-2.2721480490872636E-5,0.079761110246181488,2.7605081413639709E-5,1]},{"mesh":2,"matrix":[0.10004082322120667,0,0,0,0,-1.1925795462275346E-8,-0.10004080832004547,0,0,0.10004080832004547,-1.1925795462275346E-8,0,-2.2721480490872636E-5,0.079761110246181488,2.7605081413639709E-5,1]},{"mesh":3,"matrix":[0.10004082322120667,0,0,0,0,-1.1925795462275346E-8,-0.10004080832004547,0,0,0.10004080832004547,-1.1925795462275346E-8,0,-2.2721480490872636E-5,0.079761110246181488,2.7605081413639709E-5,1]},{"mesh":4,"matrix":[0.10004082322120667,0,0,0,0,-1.1925795462275346E-8,-0.10004080832004547,0,0,0.10004080832004547,-1.1925795462275346E-8,0,-2.2721480490872636E-5,0.079761110246181488,2.7605081413639709E-5,1]},{"mesh":5,"matrix":[0.10004082322120667,0,0,0,0,-1.1925795462275346E-8,-0.10004080832004547,0,0,0.10004080832004547,-1.1925795462275346E-8,0,-2.2721480490872636E-5,0.079761110246181488,2.7605081413639709E-5,1]},{"mesh":6,"matrix":[0.10004082322120667,0,0,0,0,-1.1925795462275346E-8,-0.10004080832004547,0,0,0.10004080832004547,-1.1925795462275346E-8,0,-2.2721480490872636E-5,0.079761110246181488,2.7605081413639709E-5,1]},{"mesh":7,"matrix":[0.10004082322120667,0,0,0,0,-1.1925795462275346E-8,-0.10004080832004547,0,0,0.10004080832004547,-1.1925795462275346E-8,0,-2.2721480490872636E-5,0.079761110246181488,2.7605081413639709E-5,1]},{"mesh":8,"matrix":[0.10004082322120667,0,0,0,0,-1.1925795462275346E-8,-0.10004080832004547,0,0,0.10004080832004547,-1.1925795462275346E-8,0,-2.2721480490872636E-5,0.079761110246181488,2.7605081413639709E-5,1]},{"mesh":9,"matrix":[0.10004082322120667,0,0,0,0,-1.1925795462275346E-8,-0.10004080832004547,0,0,0.10004080832004547,-1.1925795462275346E-8,0,-2.2721480490872636E-5,0.079761110246181488,2.7605081413639709E-5,1]},{"mesh":10,"matrix":[0.10004082322120667,0,0,0,0,-1.1925795462275346E-8,-0.10004080832004547,0,0,0.10004080832004547,-1.1925795462275346E-8,0,-2.2721480490872636E-5,0.079761110246181488,2.7605081413639709E-5,1]},{"mesh":11,"matrix":[0.10004082322120667,0,0,0,0,-1.1925795462275346E-8,-0.10004080832004547,0,0,0.10004080832004547,-1.1925795462275346E-8,0,-2.2721480490872636E-5,0.079761110246181488,2.7605081413639709E-5,1]},{"mesh":12,"matrix":[0.10004082322120667,0,0,0,0,-1.1925795462275346E-8,-0.10004080832004547,0,0,0.10004080832004547,-1.1925795462275346E-8,0,-2.2721480490872636E-5,0.079761110246181488,2.7605081413639709E-5,1]},{"mesh":13,"matrix":[0.10004082322120667,0,0,0,0,-1.1925795462275346E-8,-0.10004080832004547,0,0,0.10004080832004547,-1.1925795462275346E-8,0,-2.2721480490872636E-5,0.079761110246181488,2.7605081413639709E-5,1]},{"mesh":14,"matrix":[0.10004082322120667,0,0,0,0,-1.1925795462275346E-8,-0.10004080832004547,0,0,0.10004080832004547,-1.1925795462275346E-8,0,-2.2721480490872636E-5,0.079761110246181488,2.7605081413639709E-5,1]},{"mesh":15,"matrix":[0.10004082322120667,0,0,0,0,-1.1925795462275346E-8,-0.10004080832004547,0,0,0.10004080832004547,-1.1925795462275346E-8,0,-2.2721480490872636E-5,0.079761110246181488,2.7605081413639709E-5,1]},{"mesh":16,"matrix":[0.10004082322120667,0,0,0,0,-1.1925795462275346E-8,-0.10004080832004547,0,0,0.10004080832004547,-1.1925795462275346E-8,0,-2.2721480490872636E-5,0.079761110246181488,2.7605081413639709E-5,1]}],"meshes":[{"primitives":[{"attributes":{"POSITION":0},"mode":4,"indices":1,"material":0}]},{"primitives":[{"attributes":{"POSITION":2},"mode":4,"indices":3,"material":0}]},{"primitives":[{"attributes":{"POSITION":4},"mode":4,"indices":5,"material":0}]},{"primitives":[{"attributes":{"POSITION":6},"mode":4,"indices":7,"material":0}]},{"primitives":[{"attributes":{"POSITION":8},"mode":4,"indices":9,"material":0}]},{"primitives":[{"attributes":{"POSITION":10},"mode":4,"indices":11,"material":0}]},{"primitives":[{"attributes":{"POSITION":12},"mode":4,"indices":13,"material":0}]},{"primitives":[{"attributes":{"POSITION":14},"mode":4,"indices":15,"material":0}]},{"primitives":[{"attributes":{"POSITION":16},"mode":4,"indices":17,"material":0}]},{"primitives":[{"attributes":{"POSITION":18},"mode":4,"indices":19,"material":0}]},{"primitives":[{"attributes":{"POSITION":20},"mode":4,"indices":21,"material":0}]},{"primitives":[{"attributes":{"POSITION":22},"mode":4,"indices":23,"material":0}]},{"primitives":[{"attributes":{"POSITION":24},"mode":4,"indices":25,"material":0}]},{"primitives":[{"attributes":{"POSITION":26},"mode":4,"indices":27,"material":0}]},{"primitives":[{"attributes":{"POSITION":28},"mode":4,"indices":29,"material":0}]},{"primitives":[{"attributes":{"POSITION":30},"mode":4,"indices":31,"material":0}]},{"primitives":[{"attributes":{"POSITION":32},"mode":4,"indices":33,"material":0}]}],"materials":[{"name":"Metallic","pbrMetallicRoughness":{"baseColorFactor":[0.21586053073406219,0.21586053073406219,0.21586053073406219,1],"metallicFactor":0,"roughnessFactor":1},"alphaMode":"OPAQUE"}],"accessors":[{"bufferView":0,"byteOffset":0,"count":173,"componentType":5126,"type":"VEC3","min":[0.036777902394533157,1.0320656299591064,-0.34238409996032715],"max":[0.7643202543258667,1.0959193706512451,1.0337314605712891]},{"bufferView":1,"byteOffset":0,"count":1026,"componentType":5125,"type":"SCALAR"},{"bufferView":2,"byteOffset":0,"count":1069,"componentType":5126,"type":"VEC3","min":[0.13597230613231659,0.66846305131912231,-0.3798617422580719],"max":[0.39099481701850891,1.081883430480957,0.20646819472312927]},{"bufferView":3,"byteOffset":0,"count":6402,"componentType":5125,"type":"SCALAR"},{"bufferView":4,"byteOffset":0,"count":7485,"componentType":5126,"type":"VEC3","min":[0.3535459041595459,0.22419156134128571,-0.79727852344512939],"max":[1.0970354080200195,1.3481776714324951,-0.10006766021251678]},{"bufferView":5,"byteOffset":0,"count":58116,"componentType":5125,"type":"SCALAR"},{"bufferView":6,"byteOffset":0,"count":2331,"componentType":5126,"type":"VEC3","min":[-0.13566480576992035,-0.21411029994487762,-0.7972673773765564],"max":[0.99404609203338623,0.75994193553924561,-0.32046511769294739]},{"bufferView":7,"byteOffset":0,"count":14346,"componentType":5125,"type":"SCALAR"},{"bufferView":8,"byteOffset":0,"count":6,"componentType":5126,"type":"VEC3","min":[-0.1103077232837677,-0.045203089714050293,-0.43629378080368042],"max":[-0.091208361089229584,-0.011137849651277065,-0.42965361475944519]},{"bufferView":9,"byteOffset":0,"count":24,"componentType":5125,"type":"SCALAR"},{"bufferView":10,"byteOffset":0,"count":4510,"componentType":5126,"type":"VEC3","min":[-0.56210833787918091,-0.087942376732826233,-0.79726719856262207],"max":[0.35397297143936157,1.3112852573394775,0.14154396951198578]},{"bufferView":11,"byteOffset":0,"count":27954,"componentType":5125,"type":"SCALAR"},{"bufferView":12,"byteOffset":0,"count":7342,"componentType":5126,"type":"VEC3","min":[-0.30409640073776245,0.76034241914749146,-0.79728531837463379],"max":[0.62785947322845459,1.5660691261291504,0.045574087649583817]},{"bufferView":13,"byteOffset":0,"count":56490,"componentType":5125,"type":"SCALAR"},{"bufferView":14,"byteOffset":0,"count":3038,"componentType":5126,"type":"VEC3","min":[0.18418188393115997,0.364993155002594,1.6481693983078003],"max":[0.40999582409858704,0.673947274684906,2.0015721321105957]},{"bufferView":15,"byteOffset":0,"count":22506,"componentType":5125,"type":"SCALAR"},{"bufferView":16,"byteOffset":0,"count":1128,"componentType":5126,"type":"VEC3","min":[0.37342739105224609,0.47753265500068665,0.97185522317886353],"max":[0.812111496925354,0.79431450366973877,1.6540675163269043]},{"bufferView":17,"byteOffset":0,"count":6828,"componentType":5125,"type":"SCALAR"},{"bufferView":18,"byteOffset":0,"count":1297,"componentType":5126,"type":"VEC3","min":[0.26896432042121887,0.24047818779945374,-0.39419856667518616],"max":[0.5413128137588501,0.6329491138458252,0.18460947275161743]},{"bufferView":19,"byteOffset":0,"count":8136,"componentType":5125,"type":"SCALAR"},{"bufferView":20,"byteOffset":0,"count":682,"componentType":5126,"type":"VEC3","min":[0.66701513528823853,0.32124477624893188,0.65879201889038086],"max":[0.85543280839920044,0.57275432348251343,1.0588219165802002]},{"bufferView":21,"byteOffset":0,"count":4188,"componentType":5125,"type":"SCALAR"},{"bufferView":22,"byteOffset":0,"count":3821,"componentType":5126,"type":"VEC3","min":[-0.010879849083721638,0.28590267896652222,0.047653697431087494],"max":[0.59742456674575806,0.93294745683670044,1.3275657892227173]},{"bufferView":23,"byteOffset":0,"count":23034,"componentType":5125,"type":"SCALAR"},{"bufferView":24,"byteOffset":0,"count":1201,"componentType":5126,"type":"VEC3","min":[-0.22822384536266327,0.47869440913200378,0.97391289472579956],"max":[0.21064119040966034,0.79463827610015869,1.6544339656829834]},{"bufferView":25,"byteOffset":0,"count":7458,"componentType":5125,"type":"SCALAR"},{"bufferView":26,"byteOffset":0,"count":736,"componentType":5126,"type":"VEC3","min":[-0.27083662152290344,0.32715761661529541,0.657762348651886],"max":[-0.084088504314422607,0.5814434289932251,1.0635851621627808]},{"bufferView":27,"byteOffset":0,"count":4674,"componentType":5125,"type":"SCALAR"},{"bufferView":28,"byteOffset":0,"count":15105,"componentType":5126,"type":"VEC3","min":[-0.080130718648433685,0.73032629489898682,0.995105504989624],"max":[0.76849353313446045,0.93403857946395874,1.8575922250747681]},{"bufferView":29,"byteOffset":0,"count":126456,"componentType":5125,"type":"SCALAR"},{"bufferView":30,"byteOffset":0,"count":3752,"componentType":5126,"type":"VEC3","min":[0.0033481961581856012,0.35097548365592957,1.1089141368865967],"max":[0.58004432916641235,0.862914502620697,1.8105320930480957]},{"bufferView":31,"byteOffset":0,"count":22992,"componentType":5125,"type":"SCALAR"},{"bufferView":32,"byteOffset":0,"count":2282,"componentType":5126,"type":"VEC3","min":[0.74120128154754639,0.90700328350067139,-0.11177387088537216],"max":[1.6755752563476562,1.1260676383972168,1.9452859163284302]},{"bufferView":33,"byteOffset":0,"count":14082,"componentType":5125,"type":"SCALAR"}],"bufferViews":[{"buffer":0,"byteOffset":0,"byteLength":2076,"byteStride":12,"target":34962},{"buffer":0,"byteOffset":2076,"byteLength":4104,"target":34963},{"buffer":0,"byteOffset":6180,"byteLength":12828,"byteStride":12,"target":34962},{"buffer":0,"byteOffset":19008,"byteLength":25608,"target":34963},{"buffer":0,"byteOffset":44616,"byteLength":89820,"byteStride":12,"target":34962},{"buffer":0,"byteOffset":134436,"byteLength":232464,"target":34963},{"buffer":0,"byteOffset":366900,"byteLength":27972,"byteStride":12,"target":34962},{"buffer":0,"byteOffset":394872,"byteLength":57384,"target":34963},{"buffer":0,"byteOffset":452256,"byteLength":72,"byteStride":12,"target":34962},{"buffer":0,"byteOffset":452328,"byteLength":96,"target":34963},{"buffer":0,"byteOffset":452424,"byteLength":54120,"byteStride":12,"target":34962},{"buffer":0,"byteOffset":506544,"byteLength":111816,"target":34963},{"buffer":0,"byteOffset":618360,"byteLength":88104,"byteStride":12,"target":34962},{"buffer":0,"byteOffset":706464,"byteLength":225960,"target":34963},{"buffer":0,"byteOffset":932424,"byteLength":36456,"byteStride":12,"target":34962},{"buffer":0,"byteOffset":968880,"byteLength":90024,"target":34963},{"buffer":0,"byteOffset":1058904,"byteLength":13536,"byteStride":12,"target":34962},{"buffer":0,"byteOffset":1072440,"byteLength":27312,"target":34963},{"buffer":0,"byteOffset":1099752,"byteLength":15564,"byteStride":12,"target":34962},{"buffer":0,"byteOffset":1115316,"byteLength":32544,"target":34963},{"buffer":0,"byteOffset":1147860,"byteLength":8184,"byteStride":12,"target":34962},{"buffer":0,"byteOffset":1156044,"byteLength":16752,"target":34963},{"buffer":0,"byteOffset":1172796,"byteLength":45852,"byteStride":12,"target":34962},{"buffer":0,"byteOffset":1218648,"byteLength":92136,"target":34963},{"buffer":0,"byteOffset":1310784,"byteLength":14412,"byteStride":12,"target":34962},{"buffer":0,"byteOffset":1325196,"byteLength":29832,"target":34963},{"buffer":0,"byteOffset":1355028,"byteLength":8832,"byteStride":12,"target":34962},{"buffer":0,"byteOffset":1363860,"byteLength":18696,"target":34963},{"buffer":0,"byteOffset":1382556,"byteLength":181260,"byteStride":12,"target":34962},{"buffer":0,"byteOffset":1563816,"byteLength":505824,"target":34963},{"buffer":0,"byteOffset":2069640,"byteLength":45024,"byteStride":12,"target":34962},{"buffer":0,"byteOffset":2114664,"byteLength":91968,"target":34963},{"buffer":0,"byteOffset":2206632,"byteLength":27384,"byteStride":12,"target":34962},{"buffer":0,"byteOffset":2234016,"byteLength":56328,"target":34963}],"buffers":[{"byteLength":2290344,"uri":"capitao_america.bin"}]}