{"asset":{"generator":"3D Builder","version":"2.0"},"scene":0,"scenes":[{"nodes":[0]}],"nodes":[{"mesh":0,"matrix":[-1.3351435512731769E-8,-5.2320768872959889E-7,-0.11199992895126343,0,-0.11200021207332611,-1.3973924069432542E-5,2.0010496371014597E-7,0,-1.4023409676156007E-5,0.11199997365474701,-4.9622570941210142E-7,0,0.94889175891876221,0.13107587397098541,0.64916253089904785,1]}],"meshes":[{"primitives":[{"attributes":{"POSITION":0},"mode":4,"indices":1,"material":0}]}],"materials":[{"name":"Metallic","pbrMetallicRoughness":{"baseColorFactor":[0.21586053073406219,0.21586053073406219,0.21586053073406219,1],"metallicFactor":0,"roughnessFactor":1},"alphaMode":"OPAQUE"}],"accessors":[{"bufferView":0,"byteOffset":0,"count":128999,"componentType":5126,"type":"VEC3","min":[-0.63875234127044678,-0.72281289100646973,-1.1703766584396362],"max":[0.644199788570404,0.72488290071487427,1.3296232223510742]},{"bufferView":1,"byteOffset":0,"count":774036,"componentType":5125,"type":"SCALAR"}],"bufferViews":[{"buffer":0,"byteOffset":0,"byteLength":1547988,"byteStride":12,"target":34962},{"buffer":0,"byteOffset":1547988,"byteLength":3096144,"target":34963}],"buffers":[{"byteLength":4644132,"uri":"Thanos.bin"}]}