{"asset":{"generator":"3D Builder","version":"2.0"},"scene":0,"scenes":[{"nodes":[0]}],"nodes":[{"mesh":0,"matrix":[-9.5367376218291611E-9,-3.7372026895354793E-7,-0.079999931156635284,0,-0.0800001323223114,-9.9813742053811438E-6,1.4279581250775664E-7,0,-1.0016718988481443E-5,0.07999999076128006,-3.5444628565528546E-7,0,0.94885832071304321,0.093625664710998535,0.64907532930374146,1]}],"meshes":[{"primitives":[{"attributes":{"POSITION":0},"mode":4,"indices":1,"material":0}]}],"materials":[{"name":"Metallic","pbrMetallicRoughness":{"baseColorFactor":[0.21586053073406219,0.21586053073406219,0.21586053073406219,1],"metallicFactor":0,"roughnessFactor":1},"alphaMode":"OPAQUE"}],"accessors":[{"bufferView":0,"byteOffset":0,"count":128999,"componentType":5126,"type":"VEC3","min":[-0.63875234127044678,-0.72281289100646973,-1.1703766584396362],"max":[0.644199788570404,0.72488290071487427,1.3296232223510742]},{"bufferView":1,"byteOffset":0,"count":774036,"componentType":5125,"type":"SCALAR"}],"bufferViews":[{"buffer":0,"byteOffset":0,"byteLength":1547988,"byteStride":12,"target":34962},{"buffer":0,"byteOffset":1547988,"byteLength":3096144,"target":34963}],"buffers":[{"byteLength":4644132,"uri":"thanos.bin"}]}