{"asset":{"generator":"3D Builder","version":"2.0"},"scene":0,"scenes":[{"nodes":[0]}],"nodes":[{"mesh":0,"matrix":[-0.069113641977310181,2.9947937463248309E-8,5.5879310068007726E-9,0,0,2.4839783563379569E-8,0.069113634526729584,0,2.9947930357820951E-8,0.0691136047244072,-2.4839778234309051E-8,0,-0.013269302435219288,5.3667235100363087E-9,0.0043334141373634338,1]}],"meshes":[{"primitives":[{"attributes":{"POSITION":0},"mode":4,"indices":1,"material":0}]}],"materials":[{"name":"Metallic","pbrMetallicRoughness":{"baseColorFactor":[0.21586053073406219,0.21586053073406219,0.21586053073406219,1],"metallicFactor":0,"roughnessFactor":1},"alphaMode":"OPAQUE"}],"accessors":[{"bufferView":0,"byteOffset":0,"count":17200,"componentType":5126,"type":"VEC3","min":[-1.5239999294281006,-1.4731998443603516,0],"max":[1.2699494361877441,1.3207494020462036,4.051300048828125]},{"bufferView":1,"byteOffset":0,"count":114804,"componentType":5125,"type":"SCALAR"}],"bufferViews":[{"buffer":0,"byteOffset":0,"byteLength":206400,"byteStride":12,"target":34962},{"buffer":0,"byteOffset":206400,"byteLength":459216,"target":34963}],"buffers":[{"byteLength":665616,"uri":"goku.bin"}]}