{"asset":{"generator":"3D Builder","version":"2.0"},"scene":0,"scenes":[{"nodes":[0]}],"nodes":[{"mesh":0,"matrix":[0.10497156530618668,0,0,0,0,-1.2513585723183951E-8,-0.10497155040502548,0,0,0.10497155040502548,-1.2513585723183951E-8,0,2.79745137277132E-7,7.3548955012263384E-14,6.1697329556409386E-7,1]}],"meshes":[{"primitives":[{"attributes":{"POSITION":0},"mode":4,"indices":1,"material":0}]}],"materials":[{"name":"Regular","pbrMetallicRoughness":{"baseColorFactor":[0.21586053073406219,0.21586053073406219,0.21586053073406219,1],"metallicFactor":0,"roughnessFactor":1},"alphaMode":"OPAQUE"}],"accessors":[{"bufferView":0,"byteOffset":0,"count":55107,"componentType":5126,"type":"VEC3","min":[-0.81713306903839111,-0.90488392114639282,1.3291717948504811E-7],"max":[0.81701970100402832,0.90513026714324951,2.2295362949371338]},{"bufferView":1,"byteOffset":0,"count":330630,"componentType":5125,"type":"SCALAR"}],"bufferViews":[{"buffer":0,"byteOffset":0,"byteLength":661284,"byteStride":12,"target":34962},{"buffer":0,"byteOffset":661284,"byteLength":1322520,"target":34963}],"buffers":[{"byteLength":1983804,"uri":"hulk.bin"}]}