{"asset":{"generator":"3D Builder","version":"2.0"},"scene":0,"scenes":[{"nodes":[0]}],"nodes":[{"mesh":0,"matrix":[0.19705891609191895,0,0,0,0,-2.3491253386964672E-8,-0.19705888628959656,0,0,0.19705888628959656,-2.3491253386964672E-8,0,-0.063090287148952484,-3.9448523239116184E-6,0.029775697737932205,1]}],"meshes":[{"primitives":[{"attributes":{"POSITION":0},"mode":4,"indices":1,"material":0}]}],"materials":[{"name":"Metallic","pbrMetallicRoughness":{"baseColorFactor":[0.21586053073406219,0.21586053073406219,0.21586053073406219,1],"metallicFactor":0,"roughnessFactor":1},"alphaMode":"OPAQUE"}],"accessors":[{"bufferView":0,"byteOffset":0,"count":52604,"componentType":5126,"type":"VEC3","min":[0.0003143996000289917,0.00065999862272292376,2.0012259483337402E-5],"max":[1.2997267246246338,0.61289972066879272,0.6597212553024292]},{"bufferView":1,"byteOffset":0,"count":316404,"componentType":5125,"type":"SCALAR"}],"bufferViews":[{"buffer":0,"byteOffset":0,"byteLength":631248,"byteStride":12,"target":34962},{"buffer":0,"byteOffset":631248,"byteLength":1265616,"target":34963}],"buffers":[{"byteLength":1896864,"uri":"leao.bin"}]}