{"asset":{"generator":"3D Builder","version":"2.0"},"scene":0,"scenes":[{"nodes":[0]}],"nodes":[{"mesh":0,"matrix":[0.20005923509597778,0,0,0,0,-2.3848919283864234E-8,-0.2000592052936554,0,0,0.2000592052936554,-2.3848919283864234E-8,0,0.00032290129456669092,-7.9937171904020943E-6,-0.00016465350927319378,1]}],"meshes":[{"primitives":[{"attributes":{"POSITION":0},"mode":4,"indices":3,"material":0},{"attributes":{"POSITION":1,"COLOR_0":2},"mode":4,"indices":4}]}],"materials":[{"name":"Default","pbrMetallicRoughness":{"baseColorFactor":[0.50288659334182739,0.50288659334182739,0.50288659334182739,1],"metallicFactor":0,"roughnessFactor":1},"alphaMode":"OPAQUE"}],"accessors":[{"bufferView":0,"byteOffset":0,"count":13,"componentType":5126,"type":"VEC3","min":[-0.08987552672624588,-0.41449457406997681,0.0177950169891119],"max":[0.0098063545301556587,0.31166538596153259,1.4201432466506958]},{"bufferView":0,"byteOffset":156,"count":14700,"componentType":5126,"type":"VEC3","min":[-0.48019680380821228,-0.50719529390335083,3.9962786104297265E-5],"max":[0.47374263405799866,0.50390416383743286,1.4995957612991333]},{"bufferView":1,"byteOffset":0,"count":14700,"componentType":5121,"type":"VEC4","normalized":true},{"bufferView":2,"byteOffset":0,"count":15,"componentType":5125,"type":"SCALAR"},{"bufferView":2,"byteOffset":60,"count":88641,"componentType":5125,"type":"SCALAR"}],"bufferViews":[{"buffer":0,"byteOffset":0,"byteLength":176556,"byteStride":12,"target":34962},{"buffer":0,"byteOffset":176556,"byteLength":58800,"byteStride":4,"target":34962},{"buffer":0,"byteOffset":235356,"byteLength":354624,"target":34963}],"buffers":[{"byteLength":589980,"uri":"homem_aranha.bin"}]}