{"asset":{"generator":"3D Builder","version":"2.0"},"scene":0,"scenes":[{"nodes":[0]}],"nodes":[{"mesh":0,"matrix":[0.20005923509597778,0,0,0,0,-2.3848919283864234E-8,-0.2000592052936554,0,0,0.2000592052936554,-2.3848919283864234E-8,0,0.00032290129456669092,-7.9937171904020943E-6,-0.00016465350927319378,1]}],"meshes":[{"primitives":[{"attributes":{"POSITION":0},"mode":4,"indices":1,"material":0}]}],"materials":[{"name":"Regular","pbrMetallicRoughness":{"baseColorFactor":[0.16826939582824707,0.16826939582824707,0.16826939582824707,1],"metallicFactor":0,"roughnessFactor":1},"alphaMode":"OPAQUE"}],"accessors":[{"bufferView":0,"byteOffset":0,"count":14700,"componentType":5126,"type":"VEC3","min":[-0.48019680380821228,-0.50719529390335083,3.9962786104297265E-5],"max":[0.47374263405799866,0.50390416383743286,1.4995957612991333]},{"bufferView":1,"byteOffset":0,"count":88656,"componentType":5125,"type":"SCALAR"}],"bufferViews":[{"buffer":0,"byteOffset":0,"byteLength":176400,"byteStride":12,"target":34962},{"buffer":0,"byteOffset":176400,"byteLength":354624,"target":34963}],"buffers":[{"byteLength":531024,"uri":"homem_aranha.bin"}]}