{"asset":{"generator":"3D Builder","version":"2.0"},"scene":0,"scenes":[{"nodes":[0]}],"nodes":[{"mesh":0,"matrix":[0.10002961009740829,0,0,0,0,-1.1924458753753697E-8,-0.1000295951962471,0,0,0.1000295951962471,-1.1924458753753697E-8,0,-0.00702368700876832,-3.9957271837920416E-6,0.009406757541000843,1]}],"meshes":[{"primitives":[{"attributes":{"POSITION":0},"mode":4,"indices":1,"material":0}]}],"materials":[{"name":"Metallic","pbrMetallicRoughness":{"baseColorFactor":[0.11697067320346832,0.11697067320346832,0.11697067320346832,1],"metallicFactor":0,"roughnessFactor":1},"alphaMode":"OPAQUE"}],"accessors":[{"bufferView":0,"byteOffset":0,"count":14700,"componentType":5126,"type":"VEC3","min":[-0.48019686341285706,-0.50719541311264038,3.9978032873477787E-5],"max":[0.47374266386032104,0.50390416383743286,1.499596118927002]},{"bufferView":1,"byteOffset":0,"count":88656,"componentType":5125,"type":"SCALAR"}],"bufferViews":[{"buffer":0,"byteOffset":0,"byteLength":176400,"byteStride":12,"target":34962},{"buffer":0,"byteOffset":176400,"byteLength":354624,"target":34963}],"buffers":[{"byteLength":531024,"uri":"homem_aranha.bin"}]}