{"asset":{"generator":"3D Builder","version":"2.0"},"scene":0,"scenes":[{"nodes":[0]}],"nodes":[{"mesh":0,"matrix":[0.31821969151496887,0,0,0,0,-3.7934743346568212E-8,-0.31821966171264648,0,0,0.31821966171264648,-3.7934743346568212E-8,0,-0.045592639595270157,0.089184269309043884,0.0960068330168724,1]}],"meshes":[{"primitives":[{"attributes":{"POSITION":0},"mode":4,"indices":1,"material":0}]}],"materials":[{"name":"Metallic","pbrMetallicRoughness":{"baseColorFactor":[0.21586053073406219,0.21586053073406219,0.21586053073406219,1],"metallicFactor":0,"roughnessFactor":1},"alphaMode":"OPAQUE"}],"accessors":[{"bufferView":0,"byteOffset":0,"count":158269,"componentType":5126,"type":"VEC3","min":[-4.0005681512411684E-5,0.28029000759124756,-0.28025999665260315],"max":[0.417900025844574,0.59961998462677,0.59963500499725342]},{"bufferView":1,"byteOffset":0,"count":949836,"componentType":5125,"type":"SCALAR"}],"bufferViews":[{"buffer":0,"byteOffset":0,"byteLength":1899228,"byteStride":12,"target":34962},{"buffer":0,"byteOffset":1899228,"byteLength":3799344,"target":34963}],"buffers":[{"byteLength":5698572,"uri":"jesus_cruz.bin"}]}