{"asset":{"generator":"3D Builder","version":"2.0"},"scene":0,"scenes":[{"nodes":[0]}],"nodes":[{"mesh":0,"matrix":[1.3336749076843262,0,0,0,0,1.3336745500564575,-6.3594552557333373E-7,0,0,1.5640254957816069E-7,1.3336741924285889,0,-0.096055798232555389,-0.011129840277135372,-0.0786672979593277,1]}],"meshes":[{"primitives":[{"attributes":{"POSITION":0},"mode":4,"indices":1,"material":0}]}],"materials":[{"name":"Metallic","pbrMetallicRoughness":{"baseColorFactor":[0.21586053073406219,0.21586053073406219,0.21586053073406219,1],"metallicFactor":0,"roughnessFactor":1},"alphaMode":"OPAQUE"}],"accessors":[{"bufferView":0,"byteOffset":0,"count":46549,"componentType":5126,"type":"VEC3","min":[0.0012326912255957723,7.3670162237249315E-6,1.3141959698259598E-6],"max":[0.14646989107131958,0.1499689519405365,0.09347330778837204]},{"bufferView":1,"byteOffset":0,"count":279438,"componentType":5125,"type":"SCALAR"}],"bufferViews":[{"buffer":0,"byteOffset":0,"byteLength":558588,"byteStride":12,"target":34962},{"buffer":0,"byteOffset":558588,"byteLength":1117752,"target":34963}],"buffers":[{"byteLength":1676340,"uri":"groot.bin"}]}