{"asset":{"generator":"3D Builder","version":"2.0"},"scene":0,"scenes":[{"nodes":[0]}],"nodes":[{"mesh":0,"matrix":[0.19420641660690308,0,0,0,0,-2.3151208949911961E-8,-0.19420638680458069,0,0,0.19420638680458069,-2.3151208949911961E-8,0,-0.0017169778002426028,-2.491526902304031E-5,-0.00056678079999983311,1]}],"meshes":[{"primitives":[{"attributes":{"POSITION":0},"mode":4,"indices":1,"material":0}]}],"materials":[{"name":"Metallic","pbrMetallicRoughness":{"baseColorFactor":[0.21586053073406219,0.21586053073406219,0.21586053073406219,1],"metallicFactor":0,"roughnessFactor":1},"alphaMode":"OPAQUE"}],"accessors":[{"bufferView":0,"byteOffset":0,"count":19809,"componentType":5126,"type":"VEC3","min":[-0.40733912587165833,-0.39236783981323242,0.00012825662270188332],"max":[0.44379055500030518,0.38033506274223328,1.4418931007385254]},{"bufferView":1,"byteOffset":0,"count":118458,"componentType":5125,"type":"SCALAR"}],"bufferViews":[{"buffer":0,"byteOffset":0,"byteLength":237708,"byteStride":12,"target":34962},{"buffer":0,"byteOffset":237708,"byteLength":473832,"target":34963}],"buffers":[{"byteLength":711540,"uri":"mandalorian.bin"}]}