{"asset":{"generator":"3D Builder","version":"2.0"},"scene":0,"scenes":[{"nodes":[0]}],"nodes":[{"mesh":0,"matrix":[0.13999998569488525,0,0,0,0,-1.6689298831806809E-8,-0.13999997079372406,0,0,0.13999997079372406,-1.6689298831806809E-8,0,-0.064062759280204773,-0.020762000232934952,0.0485299788415432,1]}],"meshes":[{"primitives":[{"attributes":{"POSITION":0},"mode":4,"indices":1,"material":0}]}],"materials":[{"name":"Metallic","pbrMetallicRoughness":{"baseColorFactor":[0.21586053073406219,0.21586053073406219,0.21586053073406219,1],"metallicFactor":0,"roughnessFactor":1},"alphaMode":"OPAQUE"}],"accessors":[{"bufferView":0,"byteOffset":0,"count":52067,"componentType":5126,"type":"VEC3","min":[0.95428001880645752,0.50738000869750977,0.14830000698566437],"max":[2.2488601207733154,1.9191199541091919,2.1483001708984375]},{"bufferView":1,"byteOffset":0,"count":313428,"componentType":5125,"type":"SCALAR"}],"bufferViews":[{"buffer":0,"byteOffset":0,"byteLength":624804,"byteStride":12,"target":34962},{"buffer":0,"byteOffset":624804,"byteLength":1253712,"target":34963}],"buffers":[{"byteLength":1878516,"uri":"homem_ferro.bin"}]}