{"asset":{"generator":"3D Builder","version":"2.0"},"scene":0,"scenes":[{"nodes":[0]}],"nodes":[{"mesh":0,"matrix":[1.1486409902572632,0,0,0,0,-1.3692867639747419E-7,-1.1486408710479736,0,0,1.1486408710479736,-1.3692867639747419E-7,0,6.22528386884369E-5,0.2337941974401474,-0.0021038434933871031,1]}],"meshes":[{"primitives":[{"attributes":{"POSITION":0},"mode":4,"indices":1,"material":0}]}],"materials":[{"name":"Metallic","pbrMetallicRoughness":{"baseColorFactor":[0.21586053073406219,0.21586053073406219,0.21586053073406219,1],"metallicFactor":0,"roughnessFactor":1},"alphaMode":"OPAQUE"}],"accessors":[{"bufferView":0,"byteOffset":0,"count":10305,"componentType":5126,"type":"VEC3","min":[-0.082433119416236877,-0.084362126886844635,-0.20353986322879791],"max":[0.0823143869638443,0.080349661409854889,0.040226452052593231]},{"bufferView":1,"byteOffset":0,"count":61062,"componentType":5125,"type":"SCALAR"}],"bufferViews":[{"buffer":0,"byteOffset":0,"byteLength":123660,"byteStride":12,"target":34962},{"buffer":0,"byteOffset":123660,"byteLength":244248,"target":34963}],"buffers":[{"byteLength":367908,"uri":"bob_esponja.bin"}]}