{"asset":{"generator":"3D Builder","version":"2.0"},"scene":0,"scenes":[{"nodes":[0]}],"nodes":[{"mesh":0,"matrix":[0.039526399224996567,0,0,0,0,-4.7119139701123913E-9,-0.039526395499706268,0,0,0.039526395499706268,-4.7119139701123913E-9,0,0.016789672896265984,-3.6430843465495855E-5,0.0086955921724438667,1]}],"meshes":[{"primitives":[{"attributes":{"POSITION":0},"mode":4,"indices":1,"material":0}]}],"materials":[{"name":"Metallic","pbrMetallicRoughness":{"baseColorFactor":[0.21586053073406219,0.21586053073406219,0.21586053073406219,1],"metallicFactor":0,"roughnessFactor":1},"alphaMode":"OPAQUE"}],"accessors":[{"bufferView":0,"byteOffset":0,"count":89775,"componentType":5126,"type":"VEC3","min":[-110.04251098632812,52.281925201416016,0.00092228513676673174],"max":[-104.78216552734375,58.966392517089844,7.0847792625427246]},{"bufferView":1,"byteOffset":0,"count":552294,"componentType":5125,"type":"SCALAR"}],"bufferViews":[{"buffer":0,"byteOffset":0,"byteLength":1077300,"byteStride":12,"target":34962},{"buffer":0,"byteOffset":1077300,"byteLength":2209176,"target":34963}],"buffers":[{"byteLength":3286476,"uri":"batman.bin"}]}