{"asset":{"generator":"3D Builder","version":"2.0"},"scene":0,"scenes":[{"nodes":[0]}],"nodes":[{"mesh":0,"matrix":[2.6420078277587891,0,0,0,0,-3.1495187613472808E-7,-2.64200758934021,0,0,2.64200758934021,-3.1495187613472808E-7,0,3.5591005143942311E-5,0.078447803854942322,0.0011083108838647604,1]}],"meshes":[{"primitives":[{"attributes":{"POSITION":0},"mode":4,"indices":1,"material":0}]}],"materials":[{"name":"Metallic","pbrMetallicRoughness":{"baseColorFactor":[0.21586053073406219,0.21586053073406219,0.21586053073406219,1],"metallicFactor":0,"roughnessFactor":1},"alphaMode":"OPAQUE"}],"accessors":[{"bufferView":0,"byteOffset":0,"count":42431,"componentType":5126,"type":"VEC3","min":[-0.034044001251459122,-0.076883994042873383,-0.029692498967051506],"max":[0.034015998244285583,0.077755995094776154,0.01572749949991703]},{"bufferView":1,"byteOffset":0,"count":260934,"componentType":5125,"type":"SCALAR"}],"bufferViews":[{"buffer":0,"byteOffset":0,"byteLength":509172,"byteStride":12,"target":34962},{"buffer":0,"byteOffset":509172,"byteLength":1043736,"target":34963}],"buffers":[{"byteLength":1552908,"uri":"camaro.bin"}]}