{"asset":{"generator":"3D Builder","version":"2.0"},"scene":0,"scenes":[{"nodes":[0]}],"nodes":[{"mesh":0,"matrix":[0.041105389595031738,0,0,0,0,-4.9001442903318093E-9,-0.04110538586974144,0,0,0.04110538586974144,-4.9001442903318093E-9,0,-4.5773194869980216E-5,9.0960164747522221E-12,7.6302909292280674E-5,1]}],"meshes":[{"primitives":[{"attributes":{"POSITION":0},"mode":4,"indices":1,"material":0}]}],"materials":[{"name":"Regular","pbrMetallicRoughness":{"baseColorFactor":[0.21586053073406219,0.21586053073406219,0.21586053073406219,1],"metallicFactor":0,"roughnessFactor":1},"alphaMode":"OPAQUE"}],"accessors":[{"bufferView":0,"byteOffset":0,"count":48600,"componentType":5126,"type":"VEC3","min":[-0.73099720478057861,-0.71520233154296875,-3.9668253603258294E-17],"max":[0.729442834854126,0.71261113882064819,3.6491601467132568]},{"bufferView":1,"byteOffset":0,"count":365226,"componentType":5125,"type":"SCALAR"}],"bufferViews":[{"buffer":0,"byteOffset":0,"byteLength":583200,"byteStride":12,"target":34962},{"buffer":0,"byteOffset":583200,"byteLength":1460904,"target":34963}],"buffers":[{"byteLength":2044104,"uri":"trofeu.bin"}]}