{"asset":{"generator":"3D Builder","version":"2.0"},"scene":0,"scenes":[{"nodes":[0]}],"nodes":[{"mesh":0,"matrix":[0.16476429998874664,0,0,0,0,-1.9641435144990282E-8,-0.16476428508758545,0,0,0.16476428508758545,-1.9641435144990282E-8,0,0,0.15082532167434692,-0.017946740612387657,1]}],"meshes":[{"primitives":[{"attributes":{"POSITION":0},"mode":4,"indices":1,"material":0}]}],"materials":[{"name":"Metallic","pbrMetallicRoughness":{"baseColorFactor":[0.21586053073406219,0.21586053073406219,0.21586053073406219,1],"metallicFactor":0,"roughnessFactor":1},"alphaMode":"OPAQUE"}],"accessors":[{"bufferView":0,"byteOffset":0,"count":145815,"componentType":5126,"type":"VEC3","min":[-0.5346340537071228,-0.56921792030334473,-0.91540074348449707],"max":[0.5346340537071228,0.015001352876424789,0.41983962059020996]},{"bufferView":1,"byteOffset":0,"count":874878,"componentType":5125,"type":"SCALAR"}],"bufferViews":[{"buffer":0,"byteOffset":0,"byteLength":1749780,"byteStride":12,"target":34962},{"buffer":0,"byteOffset":1749780,"byteLength":3499512,"target":34963}],"buffers":[{"byteLength":5249292,"uri":"bob_esponja.bin"}]}