{"asset":{"generator":"3D Builder","version":"2.0"},"scene":0,"scenes":[{"nodes":[0]}],"nodes":[{"mesh":0,"matrix":[0.24324688315391541,0,0,0,0,-2.8997288126220155E-8,-0.24324685335159302,0,0,0.24324685335159302,-2.8997288126220155E-8,0,0.00055128737585619092,-0.00027687207330018282,0.0044626886956393719,1]}],"meshes":[{"primitives":[{"attributes":{"POSITION":0},"mode":4,"indices":1,"material":0}]}],"materials":[{"name":"Metallic","pbrMetallicRoughness":{"baseColorFactor":[0.21586053073406219,0.21586053073406219,0.21586053073406219,1],"metallicFactor":0,"roughnessFactor":1},"alphaMode":"OPAQUE"}],"accessors":[{"bufferView":0,"byteOffset":0,"count":32473,"componentType":5126,"type":"VEC3","min":[-0.20368324220180511,-0.11277006566524506,0.0011382914381101727],"max":[0.19598621129989624,0.17507767677307129,1.1111217737197876]},{"bufferView":1,"byteOffset":0,"count":194826,"componentType":5125,"type":"SCALAR"}],"bufferViews":[{"buffer":0,"byteOffset":0,"byteLength":389676,"byteStride":12,"target":34962},{"buffer":0,"byteOffset":389676,"byteLength":779304,"target":34963}],"buffers":[{"byteLength":1168980,"uri":"homem_aranha.bin"}]}