{"asset":{"generator":"3D Builder","version":"2.0"},"scene":0,"scenes":[{"nodes":[0]}],"nodes":[{"mesh":0,"matrix":[0.13974912464618683,0,0,0,0,-1.6659393864415506E-8,-0.13974910974502563,0,0,0.13974910974502563,-1.6659393864415506E-8,0,-0.089868545532226563,7.65971108762642E-9,0.064254306256771088,1]}],"meshes":[{"primitives":[{"attributes":{"POSITION":0},"mode":4,"indices":1,"material":0}]}],"materials":[{"name":"Metallic","pbrMetallicRoughness":{"baseColorFactor":[0.21586053073406219,0.21586053073406219,0.21586053073406219,1],"metallicFactor":0,"roughnessFactor":0.5},"alphaMode":"OPAQUE"}],"accessors":[{"bufferView":0,"byteOffset":0,"count":163557,"componentType":5126,"type":"VEC3","min":[1.5958349704742432,0.54064846038818359,-4.78990180852179E-10],"max":[2.9259450435638428,2.6923384666442871,2.0035898685455322]},{"bufferView":1,"byteOffset":0,"count":1038600,"componentType":5125,"type":"SCALAR"}],"bufferViews":[{"buffer":0,"byteOffset":0,"byteLength":1962684,"byteStride":12,"target":34962},{"buffer":0,"byteOffset":1962684,"byteLength":4154400,"target":34963}],"buffers":[{"byteLength":6117084,"uri":"Flash.bin"}]}