{"asset":{"generator":"3D Builder","version":"2.0"},"scene":0,"scenes":[{"nodes":[0,3]}],"nodes":[{"children":[1,2]},{"mesh":0,"matrix":[0.091447427868843079,1.7054365031299312E-8,-4.7693622384770151E-9,0,6.00838063746778E-8,0.0914473608136177,-7.6309632390803017E-8,0,-1.2570683338708477E-7,5.1547655033346018E-8,0.091447316110134125,0,0.0095628853887319565,0.22978873550891876,-0.11270108073949814,1]},{"mesh":1,"matrix":[0.091447427868843079,1.7054365031299312E-8,-4.7693622384770151E-9,0,6.00838063746778E-8,0.0914473608136177,-7.6309632390803017E-8,0,-1.2570683338708477E-7,5.1547655033346018E-8,0.091447316110134125,0,0.0095628853887319565,0.22978873550891876,-0.11270108073949814,1]},{"mesh":2,"matrix":[0.091447547078132629,1.1433360924684166E-8,3.0934440786722917E-8,0,1.7083916503679575E-8,0.091447658836841583,-2.2892960771514481E-7,0,-1.5878234194133256E-7,8.8060609471085627E-8,0.091447547078132629,0,0.0095628853887319565,0.22978873550891876,-0.11270108073949814,1]}],"meshes":[{"primitives":[{"attributes":{"POSITION":0},"mode":4,"indices":1,"material":0}]},{"primitives":[{"attributes":{"POSITION":2},"mode":4,"indices":3,"material":0}]},{"primitives":[{"attributes":{"POSITION":4},"mode":4,"indices":5,"material":0}]}],"materials":[{"name":"Regular","pbrMetallicRoughness":{"baseColorFactor":[0.21586053073406219,0.21586053073406219,0.21586053073406219,1],"metallicFactor":0,"roughnessFactor":1},"alphaMode":"OPAQUE"}],"accessors":[{"bufferView":0,"byteOffset":0,"count":19,"componentType":5126,"type":"VEC3","min":[0.57254761457443237,-0.774985134601593,1.0583746433258057],"max":[0.698734700679779,-0.55689018964767456,1.1845618486404419]},{"bufferView":1,"byteOffset":0,"count":102,"componentType":5125,"type":"SCALAR"},{"bufferView":2,"byteOffset":0,"count":74981,"componentType":5126,"type":"VEC3","min":[-2.6320776669308543E-8,-0.81089019775390625,-6.6676761889539193E-8],"max":[2.2370650768280029,-0.73393535614013672,2.1870512962341309]},{"bufferView":3,"byteOffset":0,"count":449874,"componentType":5125,"type":"SCALAR"},{"bufferView":4,"byteOffset":0,"count":74999,"componentType":5126,"type":"VEC3","min":[0.025127192959189415,-0.74879390001297,0.36877021193504333],"max":[1.9165002107620239,1.06489098072052,1.3622126579284668]},{"bufferView":5,"byteOffset":0,"count":449982,"componentType":5125,"type":"SCALAR"}],"bufferViews":[{"buffer":0,"byteOffset":0,"byteLength":228,"byteStride":12,"target":34962},{"buffer":0,"byteOffset":228,"byteLength":408,"target":34963},{"buffer":0,"byteOffset":636,"byteLength":899772,"byteStride":12,"target":34962},{"buffer":0,"byteOffset":900408,"byteLength":1799496,"target":34963},{"buffer":0,"byteOffset":2699904,"byteLength":899988,"byteStride":12,"target":34962},{"buffer":0,"byteOffset":3599892,"byteLength":1799928,"target":34963}],"buffers":[{"byteLength":5399820,"uri":"mascote.bin"}]}