{"asset":{"generator":"3D Builder","version":"2.0"},"scene":0,"scenes":[{"nodes":[0]}],"nodes":[{"children":[1,2,3,4,5,6,7,8,9]},{"mesh":0,"matrix":[-0.54723095893859863,1.3047001345967146E-7,-1.6940658945086007E-21,0,-1.5553239306274197E-14,-6.5234999624408374E-8,0.54723089933395386,0,1.3047002767052618E-7,0.54723089933395386,6.5234999624408374E-8,0,-0.44089663028717041,0.047074470669031143,-1.8663885593414307,1]},{"mesh":1,"matrix":[-0.54723095893859863,1.3047001345967146E-7,-1.6940658945086007E-21,0,-1.5553239306274197E-14,-6.5234999624408374E-8,0.54723089933395386,0,1.3047002767052618E-7,0.54723089933395386,6.5234999624408374E-8,0,-0.44089663028717041,0.047074470669031143,-1.8663885593414307,1]},{"mesh":2,"matrix":[-0.54723095893859863,1.3047001345967146E-7,-1.6940658945086007E-21,0,-1.5553239306274197E-14,-6.5234999624408374E-8,0.54723089933395386,0,1.3047002767052618E-7,0.54723089933395386,6.5234999624408374E-8,0,-0.44089663028717041,0.047074470669031143,-1.8663885593414307,1]},{"mesh":3,"matrix":[-0.54723095893859863,1.3047001345967146E-7,-1.6940658945086007E-21,0,-1.5553239306274197E-14,-6.5234999624408374E-8,0.54723089933395386,0,1.3047002767052618E-7,0.54723089933395386,6.5234999624408374E-8,0,-0.44089663028717041,0.047074470669031143,-1.8663885593414307,1]},{"mesh":4,"matrix":[-0.54723095893859863,1.3047001345967146E-7,-1.6940658945086007E-21,0,-1.5553239306274197E-14,-6.5234999624408374E-8,0.54723089933395386,0,1.3047002767052618E-7,0.54723089933395386,6.5234999624408374E-8,0,-0.44089663028717041,0.047074470669031143,-1.8663885593414307,1]},{"mesh":5,"matrix":[-0.54723095893859863,1.3047001345967146E-7,-1.6940658945086007E-21,0,-1.5553239306274197E-14,-6.5234999624408374E-8,0.54723089933395386,0,1.3047002767052618E-7,0.54723089933395386,6.5234999624408374E-8,0,-0.44089663028717041,0.047074470669031143,-1.8663885593414307,1]},{"mesh":6,"matrix":[-0.54723095893859863,1.3047001345967146E-7,-1.6940658945086007E-21,0,-1.5553239306274197E-14,-6.5234999624408374E-8,0.54723089933395386,0,1.3047002767052618E-7,0.54723089933395386,6.5234999624408374E-8,0,-0.44089663028717041,0.047074470669031143,-1.8663885593414307,1]},{"mesh":7,"matrix":[-0.54723095893859863,1.3047001345967146E-7,-1.6940658945086007E-21,0,-1.5553239306274197E-14,-6.5234999624408374E-8,0.54723089933395386,0,1.3047002767052618E-7,0.54723089933395386,6.5234999624408374E-8,0,-0.44089663028717041,0.047074470669031143,-1.8663885593414307,1]},{"mesh":8,"matrix":[-0.54723095893859863,1.3047001345967146E-7,-1.6940658945086007E-21,0,-1.5553239306274197E-14,-6.5234999624408374E-8,0.54723089933395386,0,1.3047002767052618E-7,0.54723089933395386,6.5234999624408374E-8,0,-0.44089663028717041,0.047074470669031143,-1.8663885593414307,1]}],"meshes":[{"primitives":[{"attributes":{"POSITION":0},"mode":4,"indices":1,"material":0}]},{"primitives":[{"attributes":{"POSITION":2},"mode":4,"indices":3,"material":0}]},{"primitives":[{"attributes":{"POSITION":4},"mode":4,"indices":5,"material":0}]},{"primitives":[{"attributes":{"POSITION":6},"mode":4,"indices":7,"material":0}]},{"primitives":[{"attributes":{"POSITION":8},"mode":4,"indices":9,"material":0}]},{"primitives":[{"attributes":{"POSITION":10},"mode":4,"indices":11,"material":0}]},{"primitives":[{"attributes":{"POSITION":12},"mode":4,"indices":13,"material":0}]},{"primitives":[{"attributes":{"POSITION":14},"mode":4,"indices":15,"material":0}]},{"primitives":[{"attributes":{"POSITION":16},"mode":4,"indices":17,"material":0}]}],"materials":[{"name":"Metallic","pbrMetallicRoughness":{"baseColorFactor":[0.21586053073406219,0.21586053073406219,0.21586053073406219,1],"metallicFactor":0,"roughnessFactor":1},"alphaMode":"OPAQUE"}],"accessors":[{"bufferView":0,"byteOffset":0,"count":9762,"componentType":5126,"type":"VEC3","min":[-0.826100766658783,2.8929438591003418,0.12589648365974426],"max":[-0.74208831787109375,3.0205965042114258,0.20707504451274872]},{"bufferView":1,"byteOffset":0,"count":58560,"componentType":5125,"type":"SCALAR"},{"bufferView":2,"byteOffset":0,"count":8510,"componentType":5126,"type":"VEC3","min":[-0.61834782361984253,2.902099609375,0.12891033291816711],"max":[-0.52373600006103516,3.0336716175079346,0.20829938352108002]},{"bufferView":3,"byteOffset":0,"count":51072,"componentType":5125,"type":"SCALAR"},{"bufferView":4,"byteOffset":0,"count":5864,"componentType":5126,"type":"VEC3","min":[-0.85200798511505127,2.7336318492889404,-0.041940942406654358],"max":[-0.51040112972259521,3.0046920776367187,0.20124839246273041]},{"bufferView":5,"byteOffset":0,"count":35208,"componentType":5125,"type":"SCALAR"},{"bufferView":6,"byteOffset":0,"count":8555,"componentType":5126,"type":"VEC3","min":[-0.73748558759689331,2.8843998908996582,0.25195884704589844],"max":[-0.62301033735275269,2.9865498542785645,0.3890967071056366]},{"bufferView":7,"byteOffset":0,"count":51360,"componentType":5125,"type":"SCALAR"},{"bufferView":8,"byteOffset":0,"count":15275,"componentType":5126,"type":"VEC3","min":[-0.82807302474975586,2.7827227115631104,0.099295429885387421],"max":[-0.52385294437408447,2.9963586330413818,0.3118685781955719]},{"bufferView":9,"byteOffset":0,"count":91920,"componentType":5125,"type":"SCALAR"},{"bufferView":10,"byteOffset":0,"count":3200,"componentType":5126,"type":"VEC3","min":[-0.68739742040634155,2.9734621047973633,0.28287899494171143],"max":[-0.6638796329498291,2.9826290607452393,0.30433803796768188]},{"bufferView":11,"byteOffset":0,"count":19200,"componentType":5125,"type":"SCALAR"},{"bufferView":12,"byteOffset":0,"count":3200,"componentType":5126,"type":"VEC3","min":[-0.71057796478271484,2.9664676189422607,0.28286024928092957],"max":[-0.68949711322784424,2.9821445941925049,0.30452507734298706]},{"bufferView":13,"byteOffset":0,"count":19200,"componentType":5125,"type":"SCALAR"},{"bufferView":14,"byteOffset":0,"count":15938,"componentType":5126,"type":"VEC3","min":[-0.82171934843063354,2.8224532604217529,-0.086022600531578064],"max":[-0.75654548406600952,2.933175802230835,-0.0024441431742161512]},{"bufferView":15,"byteOffset":0,"count":95616,"componentType":5125,"type":"SCALAR"},{"bufferView":16,"byteOffset":0,"count":15938,"componentType":5126,"type":"VEC3","min":[-0.58936649560928345,2.8506126403808594,-0.085678525269031525],"max":[-0.5229983925819397,2.9623095989227295,-0.0018223667284473777]},{"bufferView":17,"byteOffset":0,"count":95616,"componentType":5125,"type":"SCALAR"}],"bufferViews":[{"buffer":0,"byteOffset":0,"byteLength":117144,"byteStride":12,"target":34962},{"buffer":0,"byteOffset":117144,"byteLength":234240,"target":34963},{"buffer":0,"byteOffset":351384,"byteLength":102120,"byteStride":12,"target":34962},{"buffer":0,"byteOffset":453504,"byteLength":204288,"target":34963},{"buffer":0,"byteOffset":657792,"byteLength":70368,"byteStride":12,"target":34962},{"buffer":0,"byteOffset":728160,"byteLength":140832,"target":34963},{"buffer":0,"byteOffset":868992,"byteLength":102660,"byteStride":12,"target":34962},{"buffer":0,"byteOffset":971652,"byteLength":205440,"target":34963},{"buffer":0,"byteOffset":1177092,"byteLength":183300,"byteStride":12,"target":34962},{"buffer":0,"byteOffset":1360392,"byteLength":367680,"target":34963},{"buffer":0,"byteOffset":1728072,"byteLength":38400,"byteStride":12,"target":34962},{"buffer":0,"byteOffset":1766472,"byteLength":76800,"target":34963},{"buffer":0,"byteOffset":1843272,"byteLength":38400,"byteStride":12,"target":34962},{"buffer":0,"byteOffset":1881672,"byteLength":76800,"target":34963},{"buffer":0,"byteOffset":1958472,"byteLength":191256,"byteStride":12,"target":34962},{"buffer":0,"byteOffset":2149728,"byteLength":382464,"target":34963},{"buffer":0,"byteOffset":2532192,"byteLength":191256,"byteStride":12,"target":34962},{"buffer":0,"byteOffset":2723448,"byteLength":382464,"target":34963}],"buffers":[{"byteLength":3105912,"uri":"majin_boo.bin"}]}