{"asset":{"generator":"3D Builder","version":"2.0"},"scene":0,"scenes":[{"nodes":[0]}],"nodes":[{"mesh":0,"matrix":[0.2700372040271759,0,0,0,0,-3.2190943244359005E-8,-0.27003717422485352,0,0,0.27003717422485352,-3.2190943244359005E-8,0,0.0068999240174889565,0.028347210958600044,0.013436449691653252,1]}],"meshes":[{"primitives":[{"attributes":{"POSITION":0},"mode":4,"indices":1,"material":0}]}],"materials":[{"name":"Metallic","pbrMetallicRoughness":{"baseColorFactor":[0.21586053073406219,0.21586053073406219,0.21586053073406219,1],"metallicFactor":0,"roughnessFactor":1},"alphaMode":"OPAQUE"}],"accessors":[{"bufferView":0,"byteOffset":0,"count":98553,"componentType":5126,"type":"VEC3","min":[-0.18273629248142242,-0.053373523056507111,-0.104975126683712],"max":[0.1015784814953804,0.21141496300697327,0.89488714933395386]},{"bufferView":1,"byteOffset":0,"count":591306,"componentType":5125,"type":"SCALAR"}],"bufferViews":[{"buffer":0,"byteOffset":0,"byteLength":1182636,"byteStride":12,"target":34962},{"buffer":0,"byteOffset":1182636,"byteLength":2365224,"target":34963}],"buffers":[{"byteLength":3547860,"uri":"maria.bin"}]}