{"asset":{"generator":"3D Builder","version":"2.0"},"scene":0,"scenes":[{"nodes":[0]}],"nodes":[{"children":[1,2,3,4,5,6,7,8,9,10,11,12,13,14,15,16,17,18,19,20,21,22,23]},{"mesh":0,"matrix":[0.42711108922958374,0,0,0,0,-5.0915609506319015E-8,-0.42711102962493896,0,0,0.42711102962493896,-5.0915609506319015E-8,0,-0.0069884918630123138,0.0027763312682509422,-0.0072406576946377754,1]},{"mesh":1,"matrix":[0.42711108922958374,0,0,0,0,-5.0915609506319015E-8,-0.42711102962493896,0,0,0.42711102962493896,-5.0915609506319015E-8,0,-0.0069884918630123138,0.0027763312682509422,-0.0072406576946377754,1]},{"mesh":2,"matrix":[0.42711108922958374,0,0,0,0,-5.0915609506319015E-8,-0.42711102962493896,0,0,0.42711102962493896,-5.0915609506319015E-8,0,-0.0069884918630123138,0.0027763312682509422,-0.0072406576946377754,1]},{"mesh":3,"matrix":[0.42711108922958374,0,0,0,0,-5.0915609506319015E-8,-0.42711102962493896,0,0,0.42711102962493896,-5.0915609506319015E-8,0,-0.0069884918630123138,0.0027763312682509422,-0.0072406576946377754,1]},{"mesh":4,"matrix":[0.42711108922958374,0,0,0,0,-5.0915609506319015E-8,-0.42711102962493896,0,0,0.42711102962493896,-5.0915609506319015E-8,0,-0.0069884918630123138,0.0027763312682509422,-0.0072406576946377754,1]},{"mesh":5,"matrix":[0.42711108922958374,0,0,0,0,-5.0915609506319015E-8,-0.42711102962493896,0,0,0.42711102962493896,-5.0915609506319015E-8,0,-0.0069884918630123138,0.0027763312682509422,-0.0072406576946377754,1]},{"mesh":6,"matrix":[0.42711108922958374,0,0,0,0,-5.0915609506319015E-8,-0.42711102962493896,0,0,0.42711102962493896,-5.0915609506319015E-8,0,-0.0069884918630123138,0.0027763312682509422,-0.0072406576946377754,1]},{"mesh":7,"matrix":[0.42711108922958374,0,0,0,0,-5.0915609506319015E-8,-0.42711102962493896,0,0,0.42711102962493896,-5.0915609506319015E-8,0,-0.0069884918630123138,0.0027763312682509422,-0.0072406576946377754,1]},{"mesh":8,"matrix":[0.42711108922958374,0,0,0,0,-5.0915609506319015E-8,-0.42711102962493896,0,0,0.42711102962493896,-5.0915609506319015E-8,0,-0.0069884918630123138,0.0027763312682509422,-0.0072406576946377754,1]},{"mesh":9,"matrix":[0.42711108922958374,0,0,0,0,-5.0915609506319015E-8,-0.42711102962493896,0,0,0.42711102962493896,-5.0915609506319015E-8,0,-0.0069884918630123138,0.0027763312682509422,-0.0072406576946377754,1]},{"mesh":10,"matrix":[0.42711108922958374,0,0,0,0,-5.0915609506319015E-8,-0.42711102962493896,0,0,0.42711102962493896,-5.0915609506319015E-8,0,-0.0069884918630123138,0.0027763312682509422,-0.0072406576946377754,1]},{"mesh":11,"matrix":[0.42711108922958374,0,0,0,0,-5.0915609506319015E-8,-0.42711102962493896,0,0,0.42711102962493896,-5.0915609506319015E-8,0,-0.0069884918630123138,0.0027763312682509422,-0.0072406576946377754,1]},{"mesh":12,"matrix":[0.42711108922958374,0,0,0,0,-5.0915609506319015E-8,-0.42711102962493896,0,0,0.42711102962493896,-5.0915609506319015E-8,0,-0.0069884918630123138,0.0027763312682509422,-0.0072406576946377754,1]},{"mesh":13,"matrix":[0.42711108922958374,0,0,0,0,-5.0915609506319015E-8,-0.42711102962493896,0,0,0.42711102962493896,-5.0915609506319015E-8,0,-0.0069884918630123138,0.0027763312682509422,-0.0072406576946377754,1]},{"mesh":14,"matrix":[0.42711108922958374,0,0,0,0,-5.0915609506319015E-8,-0.42711102962493896,0,0,0.42711102962493896,-5.0915609506319015E-8,0,-0.0069884918630123138,0.0027763312682509422,-0.0072406576946377754,1]},{"mesh":15,"matrix":[0.42711108922958374,0,0,0,0,-5.0915609506319015E-8,-0.42711102962493896,0,0,0.42711102962493896,-5.0915609506319015E-8,0,-0.0069884918630123138,0.0027763312682509422,-0.0072406576946377754,1]},{"mesh":16,"matrix":[0.42711108922958374,0,0,0,0,-5.0915609506319015E-8,-0.42711102962493896,0,0,0.42711102962493896,-5.0915609506319015E-8,0,-0.0069884918630123138,0.0027763312682509422,-0.0072406576946377754,1]},{"mesh":17,"matrix":[0.42711108922958374,0,0,0,0,-5.0915609506319015E-8,-0.42711102962493896,0,0,0.42711102962493896,-5.0915609506319015E-8,0,-0.0069884918630123138,0.0027763312682509422,-0.0072406576946377754,1]},{"mesh":18,"matrix":[0.42711108922958374,0,0,0,0,-5.0915609506319015E-8,-0.42711102962493896,0,0,0.42711102962493896,-5.0915609506319015E-8,0,-0.0069884918630123138,0.0027763312682509422,-0.0072406576946377754,1]},{"mesh":19,"matrix":[0.42711108922958374,0,0,0,0,-5.0915609506319015E-8,-0.42711102962493896,0,0,0.42711102962493896,-5.0915609506319015E-8,0,-0.0069884918630123138,0.0027763312682509422,-0.0072406576946377754,1]},{"mesh":20,"matrix":[0.42711108922958374,0,0,0,0,-5.0915609506319015E-8,-0.42711102962493896,0,0,0.42711102962493896,-5.0915609506319015E-8,0,-0.0069884918630123138,0.0027763312682509422,-0.0072406576946377754,1]},{"mesh":21,"matrix":[0.42711108922958374,0,0,0,0,-5.0915609506319015E-8,-0.42711102962493896,0,0,0.42711102962493896,-5.0915609506319015E-8,0,-0.0069884918630123138,0.0027763312682509422,-0.0072406576946377754,1]},{"mesh":22,"matrix":[0.42711108922958374,0,0,0,0,-5.0915609506319015E-8,-0.42711102962493896,0,0,0.42711102962493896,-5.0915609506319015E-8,0,-0.0069884918630123138,0.0027763312682509422,-0.0072406576946377754,1]}],"meshes":[{"primitives":[{"attributes":{"POSITION":0},"mode":4,"indices":1,"material":0}]},{"primitives":[{"attributes":{"POSITION":2},"mode":4,"indices":3,"material":0}]},{"primitives":[{"attributes":{"POSITION":4},"mode":4,"indices":5,"material":0}]},{"primitives":[{"attributes":{"POSITION":6},"mode":4,"indices":7,"material":0}]},{"primitives":[{"attributes":{"POSITION":8},"mode":4,"indices":9,"material":0}]},{"primitives":[{"attributes":{"POSITION":10},"mode":4,"indices":11,"material":0}]},{"primitives":[{"attributes":{"POSITION":12},"mode":4,"indices":13,"material":0}]},{"primitives":[{"attributes":{"POSITION":14},"mode":4,"indices":15,"material":0}]},{"primitives":[{"attributes":{"POSITION":16},"mode":4,"indices":17,"material":0}]},{"primitives":[{"attributes":{"POSITION":18},"mode":4,"indices":19,"material":0}]},{"primitives":[{"attributes":{"POSITION":20},"mode":4,"indices":21,"material":0}]},{"primitives":[{"attributes":{"POSITION":22},"mode":4,"indices":23,"material":0}]},{"primitives":[{"attributes":{"POSITION":24},"mode":4,"indices":25,"material":0}]},{"primitives":[{"attributes":{"POSITION":26},"mode":4,"indices":27,"material":0}]},{"primitives":[{"attributes":{"POSITION":28},"mode":4,"indices":29,"material":0}]},{"primitives":[{"attributes":{"POSITION":30},"mode":4,"indices":31,"material":0}]},{"primitives":[{"attributes":{"POSITION":32},"mode":4,"indices":33,"material":0}]},{"primitives":[{"attributes":{"POSITION":34},"mode":4,"indices":35,"material":0}]},{"primitives":[{"attributes":{"POSITION":36},"mode":4,"indices":37,"material":0}]},{"primitives":[{"attributes":{"POSITION":38},"mode":4,"indices":39,"material":0}]},{"primitives":[{"attributes":{"POSITION":40},"mode":4,"indices":41,"material":0}]},{"primitives":[{"attributes":{"POSITION":42},"mode":4,"indices":43,"material":0}]},{"primitives":[{"attributes":{"POSITION":44},"mode":4,"indices":45,"material":0}]}],"materials":[{"name":"Metallic","pbrMetallicRoughness":{"baseColorFactor":[0.21586053073406219,0.21586053073406219,0.21586053073406219,1],"metallicFactor":0,"roughnessFactor":1},"alphaMode":"OPAQUE"}],"accessors":[{"bufferView":0,"byteOffset":0,"count":38,"componentType":5126,"type":"VEC3","min":[-0.091305509209632874,-0.11698595434427261,0.38020977377891541],"max":[-0.062188751995563507,-0.11415404081344604,0.40450158715248108]},{"bufferView":1,"byteOffset":0,"count":216,"componentType":5125,"type":"SCALAR"},{"bufferView":2,"byteOffset":0,"count":38,"componentType":5126,"type":"VEC3","min":[-0.17651218175888062,-0.055349666625261307,0.45051982998847961],"max":[-0.11395265907049179,-0.027035640552639961,0.46050992608070374]},{"bufferView":3,"byteOffset":0,"count":216,"componentType":5125,"type":"SCALAR"},{"bufferView":4,"byteOffset":0,"count":50,"componentType":5126,"type":"VEC3","min":[-0.012976442463696003,-0.10539587587118149,0.47044762969017029],"max":[0.064304463565349579,-0.085341073572635651,0.49803724884986877]},{"bufferView":5,"byteOffset":0,"count":288,"componentType":5125,"type":"SCALAR"},{"bufferView":6,"byteOffset":0,"count":38,"componentType":5126,"type":"VEC3","min":[-0.14789178967475891,-0.15801382064819336,0.46294829249382019],"max":[-0.110630564391613,-0.088873520493507385,0.4995523989200592]},{"bufferView":7,"byteOffset":0,"count":216,"componentType":5125,"type":"SCALAR"},{"bufferView":8,"byteOffset":0,"count":1202,"componentType":5126,"type":"VEC3","min":[0.051517404615879059,0.006139315664768219,0.25955218076705933],"max":[0.066035456955432892,0.031646087765693665,0.28222960233688354]},{"bufferView":9,"byteOffset":0,"count":7200,"componentType":5125,"type":"SCALAR"},{"bufferView":10,"byteOffset":0,"count":2380,"componentType":5126,"type":"VEC3","min":[-0.0878247320652008,-0.2129984050989151,0.093565642833709717],"max":[-0.019958434626460075,-0.14805449545383453,0.1557171642780304]},{"bufferView":11,"byteOffset":0,"count":14280,"componentType":5125,"type":"SCALAR"},{"bufferView":12,"byteOffset":0,"count":2388,"componentType":5126,"type":"VEC3","min":[-0.05888831615447998,0.18860723078250885,0.53199565410614014],"max":[0.0092466697096824646,0.24628055095672607,0.59773313999176025]},{"bufferView":13,"byteOffset":0,"count":14328,"componentType":5125,"type":"SCALAR"},{"bufferView":14,"byteOffset":0,"count":18754,"componentType":5126,"type":"VEC3","min":[-0.047729525715112686,-0.15795999765396118,0.25956404209136963],"max":[0.086613617837429047,0.10945947468280792,0.5107693076133728]},{"bufferView":15,"byteOffset":0,"count":112512,"componentType":5125,"type":"SCALAR"},{"bufferView":16,"byteOffset":0,"count":43410,"componentType":5126,"type":"VEC3","min":[-0.053698647767305374,-0.14816799759864807,0.24485577642917633],"max":[0.17272621393203735,0.10933898389339447,0.49953120946884155]},{"bufferView":17,"byteOffset":0,"count":260448,"componentType":5125,"type":"SCALAR"},{"bufferView":18,"byteOffset":0,"count":21650,"componentType":5126,"type":"VEC3","min":[-0.18989044427871704,-0.22939345240592957,0.37092265486717224],"max":[0.0759621411561966,0.045671839267015457,0.54057061672210693]},{"bufferView":19,"byteOffset":0,"count":129888,"componentType":5125,"type":"SCALAR"},{"bufferView":20,"byteOffset":0,"count":198,"componentType":5126,"type":"VEC3","min":[-0.058609560132026672,-0.11666141450405121,0.38129249215126038],"max":[-0.032945547252893448,-0.099449172616004944,0.41242069005966187]},{"bufferView":21,"byteOffset":0,"count":1176,"componentType":5125,"type":"SCALAR"},{"bufferView":22,"byteOffset":0,"count":198,"componentType":5126,"type":"VEC3","min":[-0.094664826989173889,-0.10076650977134705,0.3798179030418396],"max":[-0.062008317559957504,-0.08229895681142807,0.39923715591430664]},{"bufferView":23,"byteOffset":0,"count":1176,"componentType":5125,"type":"SCALAR"},{"bufferView":24,"byteOffset":0,"count":658,"componentType":5126,"type":"VEC3","min":[-0.064834564924240112,-0.11214613914489746,0.37976667284965515],"max":[-0.027188893407583237,-0.0881657674908638,0.42040979862213135]},{"bufferView":25,"byteOffset":0,"count":3936,"componentType":5125,"type":"SCALAR"},{"bufferView":26,"byteOffset":0,"count":658,"componentType":5126,"type":"VEC3","min":[-0.095488734543323517,-0.10710227489471436,0.37660884857177734],"max":[-0.057354066520929337,-0.066563770174980164,0.4073604941368103]},{"bufferView":27,"byteOffset":0,"count":3936,"componentType":5125,"type":"SCALAR"},{"bufferView":28,"byteOffset":0,"count":3310,"componentType":5126,"type":"VEC3","min":[0.10658645629882813,-0.38225758075714111,-0.0056233364157378674],"max":[0.23261898756027222,-0.18818807601928711,0.15061971545219421]},{"bufferView":29,"byteOffset":0,"count":19848,"componentType":5125,"type":"SCALAR"},{"bufferView":30,"byteOffset":0,"count":3386,"componentType":5126,"type":"VEC3","min":[-0.023543229326605797,0.18505752086639404,-0.0065002609044313431],"max":[0.11691577732563019,0.33798724412918091,0.15672944486141205]},{"bufferView":31,"byteOffset":0,"count":20304,"componentType":5125,"type":"SCALAR"},{"bufferView":32,"byteOffset":0,"count":31378,"componentType":5126,"type":"VEC3","min":[-0.12361130118370056,-0.23886065185070038,0.075848840177059174],"max":[0.047516245394945145,-0.076575323939323425,0.31841295957565308]},{"bufferView":33,"byteOffset":0,"count":188256,"componentType":5125,"type":"SCALAR"},{"bufferView":34,"byteOffset":0,"count":29010,"componentType":5126,"type":"VEC3","min":[-0.10686828196048737,0.03180670365691185,0.42552143335342407],"max":[0.064793981611728668,0.27761006355285645,0.64906680583953857]},{"bufferView":35,"byteOffset":0,"count":174048,"componentType":5125,"type":"SCALAR"},{"bufferView":36,"byteOffset":0,"count":39762,"componentType":5126,"type":"VEC3","min":[-0.102272629737854,-0.11931250989437103,0.30462902784347534],"max":[0.023424532264471054,0.068015500903129578,0.45670995116233826]},{"bufferView":37,"byteOffset":0,"count":238560,"componentType":5125,"type":"SCALAR"},{"bufferView":38,"byteOffset":0,"count":2946,"componentType":5126,"type":"VEC3","min":[0.06143590435385704,-0.059431184083223343,0.25466611981391907],"max":[0.17857383191585541,0.088149182498455048,0.33529353141784668]},{"bufferView":39,"byteOffset":0,"count":17664,"componentType":5125,"type":"SCALAR"},{"bufferView":40,"byteOffset":0,"count":1582,"componentType":5126,"type":"VEC3","min":[0.05703822523355484,-0.0069026895798742771,0.10378016531467438],"max":[0.091280408203601837,0.026456627994775772,0.27320131659507751]},{"bufferView":41,"byteOffset":0,"count":9480,"componentType":5125,"type":"SCALAR"},{"bufferView":42,"byteOffset":0,"count":1462,"componentType":5126,"type":"VEC3","min":[0.056925471872091293,0.026685921475291252,0.14818631112575531],"max":[0.085808247327804565,0.084059305489063263,0.27820155024528503]},{"bufferView":43,"byteOffset":0,"count":8760,"componentType":5125,"type":"SCALAR"},{"bufferView":44,"byteOffset":0,"count":57218,"componentType":5126,"type":"VEC3","min":[-0.071539111435413361,-0.2829400897026062,0.070857249200344086],"max":[0.21304941177368164,0.278874933719635,0.34377589821815491]},{"bufferView":45,"byteOffset":0,"count":343296,"componentType":5125,"type":"SCALAR"}],"bufferViews":[{"buffer":0,"byteOffset":0,"byteLength":456,"byteStride":12,"target":34962},{"buffer":0,"byteOffset":456,"byteLength":864,"target":34963},{"buffer":0,"byteOffset":1320,"byteLength":456,"byteStride":12,"target":34962},{"buffer":0,"byteOffset":1776,"byteLength":864,"target":34963},{"buffer":0,"byteOffset":2640,"byteLength":600,"byteStride":12,"target":34962},{"buffer":0,"byteOffset":3240,"byteLength":1152,"target":34963},{"buffer":0,"byteOffset":4392,"byteLength":456,"byteStride":12,"target":34962},{"buffer":0,"byteOffset":4848,"byteLength":864,"target":34963},{"buffer":0,"byteOffset":5712,"byteLength":14424,"byteStride":12,"target":34962},{"buffer":0,"byteOffset":20136,"byteLength":28800,"target":34963},{"buffer":0,"byteOffset":48936,"byteLength":28560,"byteStride":12,"target":34962},{"buffer":0,"byteOffset":77496,"byteLength":57120,"target":34963},{"buffer":0,"byteOffset":134616,"byteLength":28656,"byteStride":12,"target":34962},{"buffer":0,"byteOffset":163272,"byteLength":57312,"target":34963},{"buffer":0,"byteOffset":220584,"byteLength":225048,"byteStride":12,"target":34962},{"buffer":0,"byteOffset":445632,"byteLength":450048,"target":34963},{"buffer":0,"byteOffset":895680,"byteLength":520920,"byteStride":12,"target":34962},{"buffer":0,"byteOffset":1416600,"byteLength":1041792,"target":34963},{"buffer":0,"byteOffset":2458392,"byteLength":259800,"byteStride":12,"target":34962},{"buffer":0,"byteOffset":2718192,"byteLength":519552,"target":34963},{"buffer":0,"byteOffset":3237744,"byteLength":2376,"byteStride":12,"target":34962},{"buffer":0,"byteOffset":3240120,"byteLength":4704,"target":34963},{"buffer":0,"byteOffset":3244824,"byteLength":2376,"byteStride":12,"target":34962},{"buffer":0,"byteOffset":3247200,"byteLength":4704,"target":34963},{"buffer":0,"byteOffset":3251904,"byteLength":7896,"byteStride":12,"target":34962},{"buffer":0,"byteOffset":3259800,"byteLength":15744,"target":34963},{"buffer":0,"byteOffset":3275544,"byteLength":7896,"byteStride":12,"target":34962},{"buffer":0,"byteOffset":3283440,"byteLength":15744,"target":34963},{"buffer":0,"byteOffset":3299184,"byteLength":39720,"byteStride":12,"target":34962},{"buffer":0,"byteOffset":3338904,"byteLength":79392,"target":34963},{"buffer":0,"byteOffset":3418296,"byteLength":40632,"byteStride":12,"target":34962},{"buffer":0,"byteOffset":3458928,"byteLength":81216,"target":34963},{"buffer":0,"byteOffset":3540144,"byteLength":376536,"byteStride":12,"target":34962},{"buffer":0,"byteOffset":3916680,"byteLength":753024,"target":34963},{"buffer":0,"byteOffset":4669704,"byteLength":348120,"byteStride":12,"target":34962},{"buffer":0,"byteOffset":5017824,"byteLength":696192,"target":34963},{"buffer":0,"byteOffset":5714016,"byteLength":477144,"byteStride":12,"target":34962},{"buffer":0,"byteOffset":6191160,"byteLength":954240,"target":34963},{"buffer":0,"byteOffset":7145400,"byteLength":35352,"byteStride":12,"target":34962},{"buffer":0,"byteOffset":7180752,"byteLength":70656,"target":34963},{"buffer":0,"byteOffset":7251408,"byteLength":18984,"byteStride":12,"target":34962},{"buffer":0,"byteOffset":7270392,"byteLength":37920,"target":34963},{"buffer":0,"byteOffset":7308312,"byteLength":17544,"byteStride":12,"target":34962},{"buffer":0,"byteOffset":7325856,"byteLength":35040,"target":34963},{"buffer":0,"byteOffset":7360896,"byteLength":686616,"byteStride":12,"target":34962},{"buffer":0,"byteOffset":8047512,"byteLength":1373184,"target":34963}],"buffers":[{"byteLength":9420696,"uri":"goku.bin"}]}