{"asset":{"generator":"3D Builder","version":"2.0"},"scene":0,"scenes":[{"nodes":[0]}],"nodes":[{"mesh":0,"matrix":[118.4376220703125,0,0,0,0,-1.4118864783085883E-5,-118.43760681152344,0,0,118.43760681152344,-1.4118864783085883E-5,0,0.0039910492487251759,-3.5245418985141441E-5,-0.0040424228645861149,1]}],"meshes":[{"primitives":[{"attributes":{"POSITION":0},"mode":4,"indices":1,"material":0}]}],"materials":[{"name":"Metallic","pbrMetallicRoughness":{"baseColorFactor":[0.21586053073406219,0.21586053073406219,0.21586053073406219,1],"metallicFactor":0,"roughnessFactor":1},"alphaMode":"OPAQUE"}],"accessors":[{"bufferView":0,"byteOffset":0,"count":215306,"componentType":5126,"type":"VEC3","min":[-0.00045696293818764389,-0.00037835061084479094,2.975761788093223E-7],"max":[0.000366213615052402,0.00028643308905884624,0.0023644107859581709]},{"bufferView":1,"byteOffset":0,"count":1291944,"componentType":5125,"type":"SCALAR"}],"bufferViews":[{"buffer":0,"byteOffset":0,"byteLength":2583672,"byteStride":12,"target":34962},{"buffer":0,"byteOffset":2583672,"byteLength":5167776,"target":34963}],"buffers":[{"byteLength":7751448,"uri":"naruto.bin"}]}